<svg xmlns="http://www.w3.org/2000/svg" xmlns:xlink="http://www.w3.org/1999/xlink" width="64.923645" height="581.016357" viewBox="0 0 64.9236 581.016"><path d="M5.07329 5.09816Q3.49586 9.63862 0.667386 12.5453L0.46582 12.3491L0.677085 12.1635Q0.992021 12.5218 1.4798 13.5417L1.22607 13.6631L1.01936 13.4724Q1.98415 12.4266 2.82476 11.1689L3.33984 10.3983L3.33984 21.3491L3.05859 21.3491L3.05859 21.0679L4.35498 21.0679L4.35498 21.3491L4.07373 21.3491L4.07373 9.10969L4.1074 9.04722Q5.1139 7.1799 5.79977 5.2711L6.06445 5.36621L5.98694 5.63657L4.7301 5.27622L4.80762 5.00586L5.07329 5.09816ZM4.62929 4.66215L6.43071 5.17864L6.32913 5.46132Q5.62903 7.40974 4.60256 9.31411L4.35498 9.18066L4.63623 9.18066L4.63623 21.6304L2.77734 21.6304L2.77734 11.3252L3.05859 11.3252L3.29242 11.4815Q2.42739 12.7757 1.43279 13.8538L1.1514 14.1588L0.972349 13.7844Q0.518136 12.8347 0.254555 12.5348L0.0828522 12.3394L0.264254 12.153Q3.00554 9.33593 4.54194 4.91356L4.62929 4.66215ZM10.6297 17.4851Q11.8081 19.5895 12.2399 21.0172L11.9707 21.0986L11.8748 20.8343L12.9163 20.4563L13.0122 20.7207L12.7462 20.812Q12.2533 19.3762 11.118 17.4629L11.3599 17.3193L11.4433 17.5879L10.4678 17.8911L10.3843 17.6226L10.6297 17.4851ZM9.96924 17.457L11.4884 16.9849L11.6017 17.1758Q12.7666 19.1389 13.2782 20.6294L13.368 20.8908L11.7875 21.4643L11.7015 21.1801Q11.2874 19.811 10.1389 17.76L9.96924 17.457ZM7.76514 11.8086L7.76514 7.60282L8.00928 7.57033Q9.76544 7.33659 11.6815 6.94514L12.0045 6.87916L12.0188 7.20849Q12.141 10.0205 12.3208 11.78L12.3525 12.0898L7.76514 12.0898L7.76514 11.8086ZM8.32764 11.8086L8.04639 11.8086L8.04639 11.5273L12.041 11.5273L12.041 11.8086L11.7612 11.8372Q11.5798 10.0613 11.4568 7.23292L11.7378 7.2207L11.7941 7.49626Q9.85895 7.89161 8.08349 8.12791L8.04639 7.84912L8.32764 7.84912L8.32764 11.8086ZM16.7827 13.0698L16.7827 11.8086L17.064 11.8086L17.064 12.0898L13.047 12.0898L13.0223 11.8358Q12.7989 9.53393 12.7135 6.97961L12.7058 6.74952L12.9299 6.69652Q14.8575 6.24052 16.2375 5.7847L16.3257 6.05176L16.1333 6.25689L14.9995 5.19341L15.1919 4.98828L15.2918 5.25118Q12.4885 6.3167 6.8264 7.15614L6.78516 6.87793L6.98403 6.67906L7.48173 7.17676L6.78516 7.17676L6.78516 6.89551L7.06641 6.89551L7.06641 19.2441Q7.06641 20.2072 6.15452 20.585L6.04688 20.3252L6.27812 20.1651Q6.71122 20.7907 6.81229 21.414L6.53467 21.459L6.37182 21.2297Q6.84023 20.897 10.5444 19.8394L10.6216 20.1099L10.3437 20.153Q10.2654 19.6488 10.3012 18.9958L10.582 19.0112L10.6497 19.2842L7.76514 19.9991L7.76514 12.7886L12.421 12.7886L12.4481 13.0396Q13.2965 20.8963 15.6854 20.9449Q16.6436 20.9448 17.0752 17.7128L17.354 17.75L17.2427 18.0083Q16.6834 17.7672 16.1795 17.2633L16.3784 17.0645L16.6587 17.088Q16.4193 19.9385 15.6797 19.9385L15.6722 19.9385L15.6648 19.9381Q13.9488 19.847 13.1679 13.1022L13.1316 12.7886L17.064 12.7886L17.064 13.0698L16.7827 13.0698ZM17.3452 13.3511L13.4473 13.3511L13.4473 13.0698L13.7267 13.0375Q14.4529 19.3104 15.6946 19.3764L15.6797 19.6572L15.6797 19.376Q15.902 19.376 16.0982 17.0409L16.1489 16.4372L16.5773 16.8656Q17.005 17.2933 17.4653 17.4917L17.661 17.5761L17.6328 17.7872Q17.136 21.5073 15.674 21.5073Q12.7904 21.4487 11.8888 13.1L12.1685 13.0698L12.1685 13.3511L8.04639 13.3511L8.04639 13.0698L8.32764 13.0698L8.32764 19.6396L8.04639 19.6396L7.97873 19.3667L10.8837 18.6467L10.8629 19.0266Q10.8303 19.6208 10.8995 20.0667L10.9376 20.3121L10.6988 20.3803Q7.08734 21.4115 6.69751 21.6883L6.32933 21.9498L6.25704 21.504Q6.17634 21.0063 5.81563 20.4853L5.61726 20.1987L5.93923 20.0654Q6.50391 19.8314 6.50391 19.2441L6.50391 6.61426L6.80273 6.61426L6.80273 6.89551L6.60386 7.09438L6.19115 6.68167L6.74391 6.59972Q12.3457 5.76924 15.092 4.72538L15.2562 4.66297L16.8633 6.17038L16.4139 6.31882Q15.0108 6.78228 13.0594 7.24391L12.9946 6.97021L13.2757 6.96082Q13.3605 9.49733 13.5822 11.7814L13.3022 11.8086L13.3022 11.5273L17.3452 11.5273L17.3452 13.0698L17.3452 13.3511ZM17.064 13.0698L13.4473 13.0698C13.8955 16.9414 14.6865 19.6045 15.6797 19.6572C16.0181 19.6572 16.2378 18.7388 16.3784 17.0645C16.6157 17.3018 17.0991 17.6401 17.354 17.75C16.9937 20.4482 16.3784 21.2261 15.6797 21.2261C13.7329 21.1865 12.6914 17.9126 12.1685 13.0698L8.04639 13.0698L8.04639 19.6396L10.582 19.0112C10.5645 19.332 10.582 19.855 10.6216 20.1099C7.34326 21.0459 6.83789 21.2437 6.53467 21.459C6.48193 21.1338 6.24463 20.6108 6.04688 20.3252C6.35449 20.1978 6.78516 19.9473 6.78516 19.2441L6.78516 6.89551L6.80273 6.89551L6.78516 6.87793C9.80859 6.42969 13.2495 5.72656 15.1919 4.98828L16.3257 6.05176C15.3545 6.37256 14.2207 6.68018 12.9946 6.97021C13.0518 8.67969 13.1572 10.3145 13.3022 11.8086L17.064 11.8086L17.064 13.0698ZM8.04639 11.8086L12.041 11.8086C11.896 10.3892 11.8081 8.83789 11.7378 7.2207C10.5117 7.47119 9.26807 7.68652 8.04639 7.84912L8.04639 11.8086ZM10.3843 17.6226L11.3599 17.3193C11.9883 18.3784 12.709 19.8374 13.0122 20.7207L11.9707 21.0986C11.6982 20.1978 10.9995 18.7212 10.3843 17.6226ZM4.80762 5.00586L6.06445 5.36621C5.59863 6.6626 5.02295 7.94141 4.35498 9.18066L4.35498 21.3491L3.05859 21.3491L3.05859 11.3252C2.48291 12.1865 1.85449 12.9819 1.22607 13.6631C1.08105 13.3599 0.720703 12.6392 0.46582 12.3491C2.21484 10.5518 3.83203 7.81396 4.80762 5.00586Z" fill="#32846E" fill-opacity="1.000000" transform="matrix(1 0 0 1 18.0237 6.58792)"/><path d="M5.27572 34.2013Q4.16731 33.4323 2.25572 32.3425L2.39502 32.0981L2.61892 32.2683L1.88064 33.2395L1.65674 33.0693L1.80456 32.8301Q3.9269 34.1412 4.85264 34.8599L4.68018 35.082L4.44759 34.9239L5.20345 33.8121L5.43604 33.9702L5.27572 34.2013ZM5.82526 33.8979L4.74434 35.4879L4.50771 35.3042Q3.60571 34.604 1.50892 33.3086L1.24534 33.1458L2.32025 31.7318L2.53432 31.8538Q4.46751 32.956 5.59635 33.7391L5.82526 33.8979ZM4.37982 38.8805Q3.37909 38.2175 1.32749 37.1324L1.45898 36.8838L1.68627 37.0495L0.965563 38.0382L0.738281 37.8726L0.876118 37.6274Q2.78241 38.6992 3.9782 39.5555L3.81445 39.7842L3.57683 39.6337L4.29754 38.4955L4.53516 38.646L4.37982 38.8805ZM4.92016 38.5637L3.89278 40.1862L3.6507 40.0128Q2.47995 39.1744 0.600445 38.1177L0.324598 37.9626L1.37517 36.5213L1.59048 36.6352Q3.66661 37.7332 4.69049 38.4115L4.92016 38.5637ZM2.1625 48.0051Q3.64283 45.1276 4.79664 42.2162L5.05811 42.3198L4.89517 42.5491L3.83169 41.7932L3.99463 41.564L4.25443 41.6717Q2.81487 45.1431 1.42904 47.5028L1.18652 47.3604L1.33658 47.1225L2.56265 47.8959L2.4126 48.1338L2.1625 48.0051ZM2.52223 48.5355L0.806026 47.4529L0.944006 47.2179Q2.31016 44.8918 3.73483 41.4562L3.86998 41.1303L5.40084 42.2184L5.31957 42.4234Q4.15562 45.3604 2.66269 48.2624L2.52223 48.5355ZM9.5102 41.4208Q9.56689 40.4075 9.56689 39.4941L9.56689 38.835L12.1069 38.835L12.1069 41.7178L9.49359 41.7178L9.5102 41.4208ZM10.0718 41.4522L9.79102 41.4365L9.79102 41.1553L11.8257 41.1553L11.8257 41.4365L11.5444 41.4365L11.5444 39.1162L11.8257 39.1162L11.8257 39.3975L9.84814 39.3975L9.84814 39.1162L10.1294 39.1162L10.1294 39.4941Q10.1294 40.4232 10.0718 41.4522ZM6.27421 41.3941Q6.33709 40.9816 6.44998 40.0854Q6.53461 39.4136 6.58129 39.0775L6.61497 38.835L8.95605 38.835L8.95605 39.4941Q8.95605 40.6104 8.88476 41.46L8.86313 41.7178L6.22487 41.7178L6.27421 41.3941ZM6.83028 41.4789L6.55225 41.4365L6.55225 41.1553L8.60449 41.1553L8.60449 41.4365L8.32423 41.413Q8.39355 40.5868 8.39355 39.4941L8.39355 39.1162L8.6748 39.1162L8.6748 39.3975L6.85986 39.3975L6.85986 39.1162L7.13844 39.1549Q7.09225 39.4874 7.00807 40.1557Q6.89427 41.0592 6.83028 41.4789ZM9.84814 35.2886L12.1069 35.2886L12.1069 38.2285L9.56689 38.2285L9.56689 35.2886L9.84814 35.2886ZM9.84814 35.8511L9.84814 35.5698L10.1294 35.5698L10.1294 37.9473L9.84814 37.9473L9.84814 37.666L11.8257 37.666L11.8257 37.9473L11.5444 37.9473L11.5444 35.5698L11.8257 35.5698L11.8257 35.8511L9.84814 35.8511ZM15.0601 35.5698L15.0601 38.2285L12.7485 38.2285L12.7485 35.2886L15.0601 35.2886L15.0601 35.5698ZM14.4976 35.5698L14.7788 35.5698L14.7788 35.8511L13.0298 35.8511L13.0298 35.5698L13.311 35.5698L13.311 37.9473L13.0298 37.9473L13.0298 37.666L14.7788 37.666L14.7788 37.9473L14.4976 37.9473L14.4976 35.5698ZM12.7485 41.4365L12.7485 38.835L15.9478 38.835L15.9478 39.1162L15.6665 39.1162L15.6665 34.4009L15.9478 34.4009L15.9478 34.6821L12.7485 34.6821L12.7485 31.9531L13.0298 31.9531L13.0298 32.2344L11.8257 32.2344L11.8257 31.9531L12.1069 31.9531L12.1069 34.6821L9.56689 34.6821L9.56689 31.9355L9.84814 31.9355L9.84814 32.2168L8.6748 32.2168L8.6748 31.9355L8.95605 31.9355L8.95605 34.6821L5.74365 34.6821L5.74365 34.4009L6.0249 34.4009L6.0249 35.5698L5.74365 35.5698L5.74365 35.2886L8.95605 35.2886L8.95605 38.2285L5.84912 38.2285L5.84912 37.9473L6.12944 37.9701Q5.92417 40.492 5.51455 42.6406L5.23828 42.5879L5.23828 42.3066L8.80918 42.3066L8.75446 42.6342Q8.19844 45.9628 5.54374 47.8067L5.3833 47.5757L5.53335 47.3378Q6.13378 47.7165 6.55019 48.2009L6.33691 48.3843L6.17428 48.1548Q8.89113 46.2292 9.38926 42.5502L9.42223 42.3066L12.1069 42.3066L12.1069 48.3315L11.8257 48.3315L11.8257 48.0503L13.0298 48.0503L13.0298 48.3315L12.7485 48.3315L12.7485 42.3066L16.0284 42.3066L16.0133 42.6023Q15.8856 45.0947 15.5965 45.4776Q15.3979 45.752 14.959 45.752Q14.5054 45.752 13.8288 45.6755L13.8604 45.396L14.1057 45.2585Q14.3902 45.7659 14.4268 46.4443L14.146 46.4595L14.1725 46.1795Q14.9325 46.2513 15.5184 46.1803L15.5229 46.1797L15.5273 46.1793Q15.978 46.1393 16.1697 45.8794L16.1741 45.8735L16.1787 45.8678Q16.5272 45.444 16.6951 41.911L16.9761 41.9243L16.6948 41.9243Q16.6948 41.7541 16.7128 41.4213L16.9937 41.4365L16.9937 41.7178L12.7485 41.7178L12.7485 41.4365ZM13.311 41.4365L13.0298 41.4365L13.0298 41.1553L17.2905 41.1553L17.2745 41.4517Q17.2573 41.7693 17.2573 41.9243L17.2573 41.931L17.257 41.9377Q17.0802 45.6571 16.6132 46.225L16.396 46.0464L16.6223 46.2134Q16.2802 46.6771 15.5771 46.7396L15.5522 46.4595L15.5861 46.7387Q14.94 46.817 14.1195 46.7395L13.8782 46.7167L13.8652 46.4747Q13.8355 45.9269 13.615 45.5335L13.3467 45.0549L13.8919 45.1165Q14.5371 45.1895 14.959 45.1895Q15.1107 45.1895 15.1476 45.1386Q15.3327 44.8935 15.4515 42.5735L15.7324 42.5879L15.7324 42.8691L13.0298 42.8691L13.0298 42.5879L13.311 42.5879L13.311 48.6128L11.5444 48.6128L11.5444 42.5879L11.8257 42.5879L11.8257 42.8691L9.66797 42.8691L9.66797 42.5879L9.94668 42.6256Q9.41576 46.5468 6.49955 48.6137L6.29059 48.7618L6.12364 48.5676Q5.76227 48.1472 5.23325 47.8136L4.87403 47.587L5.22286 47.3447Q7.68271 45.6361 8.19964 42.5416L8.47705 42.5879L8.47705 42.8691L4.89835 42.8691L4.96201 42.5352Q5.36597 40.4163 5.5688 37.9244L5.58983 37.666L8.6748 37.666L8.6748 37.9473L8.39355 37.9473L8.39355 35.5698L8.6748 35.5698L8.6748 35.8511L5.4624 35.8511L5.4624 34.1196L8.6748 34.1196L8.6748 34.4009L8.39355 34.4009L8.39355 31.6543L10.1294 31.6543L10.1294 34.4009L9.84814 34.4009L9.84814 34.1196L11.8257 34.1196L11.8257 34.4009L11.5444 34.4009L11.5444 31.6719L13.311 31.6719L13.311 34.4009L13.0298 34.4009L13.0298 34.1196L16.229 34.1196L16.229 39.3975L13.0298 39.3975L13.0298 39.1162L13.311 39.1162L13.311 41.4365ZM13.0298 41.4365L16.9937 41.4365C16.9937 41.4365 16.9761 41.7617 16.9761 41.9243C16.8486 44.605 16.7212 45.6509 16.396 46.0464C16.1982 46.3145 15.9478 46.4243 15.5522 46.4595C15.2622 46.4946 14.7041 46.5122 14.146 46.4595C14.1284 46.1343 14.0229 45.686 13.8604 45.396C14.3657 45.4531 14.7788 45.4707 14.959 45.4707C15.1567 45.4707 15.2798 45.4355 15.3721 45.3081C15.5347 45.0928 15.6401 44.3896 15.7324 42.5879L13.0298 42.5879L13.0298 48.3315L11.8257 48.3315L11.8257 42.5879L9.66797 42.5879C9.36035 44.8599 8.49463 46.855 6.33691 48.3843C6.12158 48.1338 5.66895 47.7559 5.3833 47.5757C7.32568 46.2266 8.15186 44.5347 8.47705 42.5879L5.23828 42.5879C5.47119 41.3662 5.72607 39.459 5.84912 37.9473L8.6748 37.9473L8.6748 35.5698L5.74365 35.5698L5.74365 34.4009L8.6748 34.4009L8.6748 31.9355L9.84814 31.9355L9.84814 34.4009L11.8257 34.4009L11.8257 31.9531L13.0298 31.9531L13.0298 34.4009L15.9478 34.4009L15.9478 39.1162L13.0298 39.1162L13.0298 41.4365ZM14.7788 35.5698L13.0298 35.5698L13.0298 37.9473L14.7788 37.9473L14.7788 35.5698ZM9.84814 35.5698L9.84814 37.9473L11.8257 37.9473L11.8257 35.5698L9.84814 35.5698ZM6.55225 41.4365L8.60449 41.4365C8.65723 40.8081 8.6748 40.1797 8.6748 39.4941L8.6748 39.1162L6.85986 39.1162C6.75 39.9072 6.66211 40.7158 6.55225 41.4365ZM9.79102 41.4365L11.8257 41.4365L11.8257 39.1162L9.84814 39.1162L9.84814 39.4941C9.84814 40.1797 9.82617 40.8081 9.79102 41.4365ZM2.4126 48.1338L1.18652 47.3604C1.99951 45.9761 3.15088 43.5986 3.99463 41.564L5.05811 42.3198C4.30225 44.2271 3.27393 46.4595 2.4126 48.1338ZM4.53516 38.646L3.81445 39.7842C3.1333 39.2964 1.76221 38.4482 0.738281 37.8726L1.45898 36.8838C2.44775 37.4067 3.83203 38.1802 4.53516 38.646ZM5.43604 33.9702L4.68018 35.082C4.01221 34.5635 2.64551 33.6802 1.65674 33.0693L2.39502 32.0981C3.36621 32.6519 4.73291 33.4824 5.43604 33.9702Z" fill="#32846E" fill-opacity="1.000000" transform="matrix(1 0 0 1 18.0237 6.58792)"/><path d="M13.645 69.1353L4.021 69.1353L4.021 65.3647L13.9263 65.3647L13.9263 69.1353L13.645 69.1353ZM13.645 68.5728L13.645 68.854L13.3638 68.854L13.3638 65.646L13.645 65.646L13.645 65.9272L4.30225 65.9272L4.30225 65.646L4.5835 65.646L4.5835 68.854L4.30225 68.854L4.30225 68.5728L13.645 68.5728ZM14.9941 64.6704L9.2417 64.6704L9.2417 61.8403L16.3257 61.8403L16.3257 62.1216L16.0444 62.1216L16.0444 60.8604L16.3257 60.8604L16.3257 61.1416L9.2417 61.1416L9.2417 58.9355L9.52295 58.9355L9.52295 59.2168L8.19141 59.2168L8.19141 58.9355L8.47266 58.9355L8.47266 64.6704L3.02344 64.6704L3.02344 64.3892L3.30469 64.3892L3.30469 70.1108L3.02344 70.1108L3.02344 69.8296L14.9941 69.8296L14.9941 70.1108L14.7129 70.1108L14.7129 64.3892L14.9941 64.3892L14.9941 64.6704ZM15.2754 64.1079L15.2754 70.3921L2.74219 70.3921L2.74219 64.1079L8.19141 64.1079L8.19141 64.3892L7.91016 64.3892L7.91016 58.6543L9.8042 58.6543L9.8042 60.8604L9.52295 60.8604L9.52295 60.5791L16.6069 60.5791L16.6069 62.4028L9.52295 62.4028L9.52295 62.1216L9.8042 62.1216L9.8042 64.3892L9.52295 64.3892L9.52295 64.1079L14.9941 64.1079L15.2754 64.1079ZM1.83949 75.1642Q3.23995 73.8144 4.25857 71.4075L4.51758 71.5171L4.44736 71.7894L3.18613 71.4642L3.25635 71.1919L3.5145 71.3035Q2.46043 73.7415 0.990486 74.988L0.808594 74.7734L0.931095 74.5203L2.15717 75.1135L2.03467 75.3667L1.83949 75.1642ZM2.08867 75.7053L0.297112 74.8384L0.626701 74.5589Q1.99632 73.3976 2.99819 71.0803L3.09365 70.8595L4.90376 71.3262L4.77659 71.6267Q3.71313 74.1396 2.22984 75.5692L2.08867 75.7053ZM6.41483 71.6239Q6.81592 73.6067 6.81592 75.2261L6.53467 75.2261L6.49696 74.9474L7.8285 74.7672L7.86621 75.0459L7.58502 75.0516Q7.55639 73.6413 7.14247 71.6264L7.41797 71.5698L7.44204 71.85L6.16323 71.9599L6.13916 71.6797L6.41483 71.6239ZM5.80099 71.4265L7.64313 71.2682L7.69347 71.5132Q8.11773 73.5785 8.1474 75.0402L8.1525 75.291L6.25342 75.5479L6.25342 75.2261Q6.25342 73.663 5.86349 71.7355L5.80099 71.4265ZM10.0785 71.5731Q11.0365 73.5202 11.3629 75.1125L11.0874 75.1689L11.0233 74.8951L12.3197 74.5919L12.3838 74.8657L12.1102 74.9311Q11.7498 73.4231 10.7848 71.5538L11.0347 71.4248L11.0965 71.6992L9.88803 71.9716L9.82617 71.6973L10.0785 71.5731ZM9.41634 71.5014L11.1849 71.1026L11.2846 71.2958Q12.281 73.2258 12.6573 74.8003L12.723 75.0752L10.8699 75.5087L10.8119 75.2254Q10.5 73.7038 9.57381 71.8214L9.41634 71.5014ZM13.7039 71.3614Q15.3657 73.4851 16.0448 75.1181L15.7852 75.2261L15.6805 74.965L16.9418 74.4596L17.0464 74.7207L16.7893 74.8347Q16.1359 73.3615 14.4328 71.2591L14.6514 71.082L14.7529 71.3443L13.584 71.7969L13.4824 71.5347L13.7039 71.3614ZM13.0272 71.4093L14.7409 70.7458L14.8699 70.905Q16.6199 73.0653 17.3035 74.6067L17.4217 74.8733L15.6321 75.5904L15.5255 75.3341Q14.8756 73.7716 13.2609 71.708L13.0272 71.4093ZM13.4824 71.5347L14.6514 71.082C15.5698 72.2158 16.5981 73.71 17.0464 74.7207L15.7852 75.2261C15.3721 74.2329 14.3833 72.686 13.4824 71.5347ZM9.82617 71.6973L11.0347 71.4248C11.5928 72.5059 12.1685 73.9648 12.3838 74.8657L11.0874 75.1689C10.9072 74.29 10.3667 72.7959 9.82617 71.6973ZM6.13916 71.6797L7.41797 71.5698C7.65088 72.7036 7.84863 74.1802 7.86621 75.0459L6.53467 75.2261C6.53467 74.3252 6.37207 72.8311 6.13916 71.6797ZM2.03467 75.3667L0.808594 74.7734C1.76221 73.9648 2.68066 72.5234 3.25635 71.1919L4.51758 71.5171C3.92432 72.9189 3.00586 74.4307 2.03467 75.3667ZM14.9941 64.3892L14.9941 70.1108L3.02344 70.1108L3.02344 64.3892L8.19141 64.3892L8.19141 58.9355L9.52295 58.9355L9.52295 60.8604L16.3257 60.8604L16.3257 62.1216L9.52295 62.1216L9.52295 64.3892L14.9941 64.3892ZM13.645 68.854L13.645 65.646L4.30225 65.646L4.30225 68.854L13.645 68.854Z" fill="#32846E" fill-opacity="1.000000" transform="matrix(1 0 0 1 18.0237 6.58792)"/><path d="M11.7466 16.7612L11.7466 18.7168L6.05566 18.7168L6.05566 16.48L11.7466 16.48L11.7466 16.7612ZM11.1841 16.7612L11.4653 16.7612L11.4653 17.0425L6.33691 17.0425L6.33691 16.7612L6.61816 16.7612L6.61816 18.4355L6.33691 18.4355L6.33691 18.1543L11.4653 18.1543L11.4653 18.4355L11.1841 18.4355L11.1841 16.7612ZM12.6738 16.0317L5.09326 16.0317L5.09326 15.7505L5.37451 15.7505L5.37451 20.3252L5.09326 20.3252L5.09326 20.0439L6.33691 20.0439L6.33691 20.3252L6.05566 20.3252L6.05566 19.1606L12.6738 19.1606L12.6738 19.4419L12.3926 19.4419L12.3926 15.7505L12.6738 15.7505L12.6738 16.0317ZM12.9551 15.4692L12.9551 19.7231L6.33691 19.7231L6.33691 19.4419L6.61816 19.4419L6.61816 20.6064L4.81201 20.6064L4.81201 15.4692L12.6738 15.4692L12.9551 15.4692ZM16.2378 13.8389L1.78418 13.8389L1.78418 13.5576L2.06543 13.5576L2.06543 21.3667L1.78418 21.3667L1.78418 21.0854L3.07617 21.0854L3.07617 21.3667L2.79492 21.3667L2.79492 14.4102L15.1831 14.4102L15.1831 19.9648Q15.1831 20.4884 14.6198 20.5309L14.6092 20.5317L14.5986 20.5317Q14.5609 20.5317 14.4273 20.533Q13.4073 20.543 12.7665 20.5139L12.7793 20.2329L13.0208 20.0888Q13.3737 20.68 13.4841 21.1634L13.21 21.2261L13.2143 20.9449Q14.995 20.9724 15.4947 20.7979Q15.9565 20.6273 15.9565 19.9648L15.9565 13.5576L16.2378 13.5576L16.2378 13.8389ZM16.519 13.2764L16.519 19.9648Q16.519 21.0192 15.6801 21.329Q15.0861 21.5363 13.2056 21.5073L12.985 21.5039L12.9358 21.2887Q12.8451 20.892 12.5378 20.377L12.2699 19.9282L12.7921 19.952Q13.4173 19.9804 14.4218 19.9706Q14.5582 19.9692 14.5986 19.9692L14.5986 20.2505L14.5775 19.97Q14.6206 19.9668 14.6206 19.9648L14.6206 14.6914L14.9019 14.6914L14.9019 14.9727L3.07617 14.9727L3.07617 14.6914L3.35742 14.6914L3.35742 21.6479L1.50293 21.6479L1.50293 13.2764L16.2378 13.2764L16.519 13.2764ZM12.9243 11.8745L4.88672 11.8745L4.88672 9.69482L13.2056 9.69482L13.2056 11.8745L12.9243 11.8745ZM12.9243 11.312L12.9243 11.5933L12.6431 11.5933L12.6431 9.97607L12.9243 9.97607L12.9243 10.2573L5.16797 10.2573L5.16797 9.97607L5.44922 9.97607L5.44922 11.5933L5.16797 11.5933L5.16797 11.312L12.9243 11.312ZM4.13525 8.98291L4.13525 12.582L3.854 12.582L3.854 12.3008L14.291 12.3008L14.291 12.582L14.0098 12.582L14.0098 8.98291L14.291 8.98291L14.291 9.26416L3.854 9.26416L3.854 8.98291L4.13525 8.98291ZM3.57275 8.70166L14.5723 8.70166L14.5723 12.8633L3.57275 12.8633L3.57275 8.98291L3.57275 8.70166ZM9.68762 6.91657Q9.27391 5.71222 8.97308 4.98606L9.23291 4.87842L9.29784 5.15207L8.00146 5.45969L7.93652 5.18604L8.20144 5.09159Q8.58221 6.15961 8.7632 6.74169L8.87661 7.10645L1.13379 7.10645L1.13379 6.8252L1.41504 6.8252L1.41504 7.97656L1.13379 7.97656L1.13379 7.69531L16.8135 7.69531L16.8135 7.97656L16.5322 7.97656L16.5322 6.8252L16.8135 6.8252L16.8135 7.10645L9.75284 7.10645L9.68762 6.91657ZM10.2196 6.73382L9.95361 6.8252L9.95361 6.54395L17.0947 6.54395L17.0947 8.25781L0.852539 8.25781L0.852539 6.54395L8.49463 6.54395L8.49463 6.8252L8.22606 6.9087Q8.04851 6.33765 7.67161 5.28048L7.56621 4.98485L9.40106 4.54946L9.49274 4.77077Q9.80024 5.513 10.2196 6.73382ZM9.95361 6.8252L16.8135 6.8252L16.8135 7.97656L1.13379 7.97656L1.13379 6.8252L8.49463 6.8252C8.33203 6.30225 8.1167 5.69141 7.93652 5.18604L9.23291 4.87842C9.48779 5.49365 9.75586 6.24951 9.95361 6.8252ZM3.854 8.98291L14.291 8.98291L14.291 12.582L3.854 12.582L3.854 8.98291ZM12.9243 11.5933L12.9243 9.97607L5.16797 9.97607L5.16797 11.5933L12.9243 11.5933ZM16.2378 13.5576L16.2378 19.9648C16.2378 20.6108 16.0752 20.8833 15.5874 21.0635C15.1216 21.2261 14.3481 21.2437 13.21 21.2261C13.1396 20.9185 12.9419 20.5054 12.7793 20.2329C13.5527 20.2681 14.3833 20.2505 14.5986 20.2505C14.8315 20.2329 14.9019 20.1802 14.9019 19.9648L14.9019 14.6914L3.07617 14.6914L3.07617 21.3667L1.78418 21.3667L1.78418 13.5576L16.2378 13.5576ZM12.6738 15.7505L12.6738 19.4419L6.33691 19.4419L6.33691 20.3252L5.09326 20.3252L5.09326 15.7505L12.6738 15.7505ZM11.4653 16.7612L6.33691 16.7612L6.33691 18.4355L11.4653 18.4355L11.4653 16.7612Z" fill="#32846E" fill-opacity="1.000000" transform="matrix(1 0 0 1 18.0237 493.428)"/><path d="M5.27572 34.2013Q4.16731 33.4323 2.25572 32.3425L2.39502 32.0981L2.61892 32.2683L1.88064 33.2395L1.65674 33.0693L1.80456 32.8301Q3.9269 34.1412 4.85264 34.8599L4.68018 35.082L4.44759 34.9239L5.20345 33.8121L5.43604 33.9702L5.27572 34.2013ZM5.82526 33.8979L4.74434 35.4879L4.50771 35.3042Q3.60571 34.604 1.50892 33.3086L1.24534 33.1458L2.32025 31.7318L2.53432 31.8538Q4.46751 32.956 5.59635 33.7391L5.82526 33.8979ZM4.37982 38.8805Q3.37909 38.2175 1.32749 37.1324L1.45898 36.8838L1.68627 37.0495L0.965563 38.0382L0.738281 37.8726L0.876118 37.6274Q2.78241 38.6992 3.9782 39.5555L3.81445 39.7842L3.57683 39.6337L4.29754 38.4955L4.53516 38.646L4.37982 38.8805ZM4.92016 38.5637L3.89278 40.1862L3.6507 40.0128Q2.47995 39.1744 0.600445 38.1177L0.324598 37.9626L1.37517 36.5213L1.59048 36.6352Q3.66661 37.7332 4.69049 38.4115L4.92016 38.5637ZM2.1625 48.0051Q3.64283 45.1276 4.79664 42.2162L5.05811 42.3198L4.89517 42.5491L3.83169 41.7932L3.99463 41.564L4.25443 41.6717Q2.81487 45.1431 1.42904 47.5028L1.18652 47.3604L1.33658 47.1225L2.56265 47.8959L2.4126 48.1338L2.1625 48.0051ZM2.52223 48.5355L0.806026 47.4529L0.944006 47.2179Q2.31016 44.8918 3.73483 41.4562L3.86998 41.1303L5.40084 42.2184L5.31957 42.4234Q4.15562 45.3604 2.66269 48.2624L2.52223 48.5355ZM9.5102 41.4208Q9.56689 40.4075 9.56689 39.4941L9.56689 38.835L12.1069 38.835L12.1069 41.7178L9.49359 41.7178L9.5102 41.4208ZM10.0718 41.4522L9.79102 41.4365L9.79102 41.1553L11.8257 41.1553L11.8257 41.4365L11.5444 41.4365L11.5444 39.1162L11.8257 39.1162L11.8257 39.3975L9.84814 39.3975L9.84814 39.1162L10.1294 39.1162L10.1294 39.4941Q10.1294 40.4232 10.0718 41.4522ZM6.27421 41.3941Q6.33709 40.9816 6.44998 40.0854Q6.53461 39.4136 6.58129 39.0775L6.61497 38.835L8.95605 38.835L8.95605 39.4941Q8.95605 40.6104 8.88476 41.46L8.86313 41.7178L6.22487 41.7178L6.27421 41.3941ZM6.83028 41.4789L6.55225 41.4365L6.55225 41.1553L8.60449 41.1553L8.60449 41.4365L8.32423 41.413Q8.39355 40.5868 8.39355 39.4941L8.39355 39.1162L8.6748 39.1162L8.6748 39.3975L6.85986 39.3975L6.85986 39.1162L7.13844 39.1549Q7.09225 39.4874 7.00807 40.1557Q6.89427 41.0592 6.83028 41.4789ZM9.84814 35.2886L12.1069 35.2886L12.1069 38.2285L9.56689 38.2285L9.56689 35.2886L9.84814 35.2886ZM9.84814 35.8511L9.84814 35.5698L10.1294 35.5698L10.1294 37.9473L9.84814 37.9473L9.84814 37.666L11.8257 37.666L11.8257 37.9473L11.5444 37.9473L11.5444 35.5698L11.8257 35.5698L11.8257 35.8511L9.84814 35.8511ZM15.0601 35.5698L15.0601 38.2285L12.7485 38.2285L12.7485 35.2886L15.0601 35.2886L15.0601 35.5698ZM14.4976 35.5698L14.7788 35.5698L14.7788 35.8511L13.0298 35.8511L13.0298 35.5698L13.311 35.5698L13.311 37.9473L13.0298 37.9473L13.0298 37.666L14.7788 37.666L14.7788 37.9473L14.4976 37.9473L14.4976 35.5698ZM12.7485 41.4365L12.7485 38.835L15.9478 38.835L15.9478 39.1162L15.6665 39.1162L15.6665 34.4009L15.9478 34.4009L15.9478 34.6821L12.7485 34.6821L12.7485 31.9531L13.0298 31.9531L13.0298 32.2344L11.8257 32.2344L11.8257 31.9531L12.1069 31.9531L12.1069 34.6821L9.56689 34.6821L9.56689 31.9355L9.84814 31.9355L9.84814 32.2168L8.6748 32.2168L8.6748 31.9355L8.95605 31.9355L8.95605 34.6821L5.74365 34.6821L5.74365 34.4009L6.0249 34.4009L6.0249 35.5698L5.74365 35.5698L5.74365 35.2886L8.95605 35.2886L8.95605 38.2285L5.84912 38.2285L5.84912 37.9473L6.12944 37.9701Q5.92417 40.492 5.51455 42.6406L5.23828 42.5879L5.23828 42.3066L8.80918 42.3066L8.75446 42.6342Q8.19844 45.9628 5.54374 47.8067L5.3833 47.5757L5.53335 47.3378Q6.13378 47.7165 6.55019 48.2009L6.33691 48.3843L6.17428 48.1548Q8.89113 46.2292 9.38926 42.5502L9.42223 42.3066L12.1069 42.3066L12.1069 48.3315L11.8257 48.3315L11.8257 48.0503L13.0298 48.0503L13.0298 48.3315L12.7485 48.3315L12.7485 42.3066L16.0284 42.3066L16.0133 42.6023Q15.8856 45.0947 15.5965 45.4776Q15.3979 45.752 14.959 45.752Q14.5054 45.752 13.8288 45.6755L13.8604 45.396L14.1057 45.2585Q14.3902 45.7659 14.4268 46.4443L14.146 46.4595L14.1725 46.1795Q14.9325 46.2513 15.5184 46.1803L15.5229 46.1797L15.5273 46.1793Q15.978 46.1393 16.1697 45.8794L16.1741 45.8735L16.1787 45.8678Q16.5272 45.444 16.6951 41.911L16.9761 41.9243L16.6948 41.9243Q16.6948 41.7541 16.7128 41.4213L16.9937 41.4365L16.9937 41.7178L12.7485 41.7178L12.7485 41.4365ZM13.311 41.4365L13.0298 41.4365L13.0298 41.1553L17.2905 41.1553L17.2745 41.4517Q17.2573 41.7693 17.2573 41.9243L17.2573 41.931L17.257 41.9377Q17.0802 45.6571 16.6132 46.225L16.396 46.0464L16.6223 46.2134Q16.2802 46.6771 15.5771 46.7396L15.5522 46.4595L15.5861 46.7387Q14.94 46.817 14.1195 46.7395L13.8782 46.7167L13.8652 46.4747Q13.8355 45.9269 13.615 45.5335L13.3467 45.0549L13.8919 45.1165Q14.5371 45.1895 14.959 45.1895Q15.1107 45.1895 15.1476 45.1386Q15.3327 44.8935 15.4515 42.5735L15.7324 42.5879L15.7324 42.8691L13.0298 42.8691L13.0298 42.5879L13.311 42.5879L13.311 48.6128L11.5444 48.6128L11.5444 42.5879L11.8257 42.5879L11.8257 42.8691L9.66797 42.8691L9.66797 42.5879L9.94668 42.6256Q9.41576 46.5468 6.49955 48.6137L6.29059 48.7618L6.12364 48.5676Q5.76227 48.1472 5.23325 47.8136L4.87403 47.587L5.22286 47.3447Q7.68271 45.6361 8.19964 42.5416L8.47705 42.5879L8.47705 42.8691L4.89835 42.8691L4.96201 42.5352Q5.36597 40.4163 5.5688 37.9244L5.58983 37.666L8.6748 37.666L8.6748 37.9473L8.39355 37.9473L8.39355 35.5698L8.6748 35.5698L8.6748 35.8511L5.4624 35.8511L5.4624 34.1196L8.6748 34.1196L8.6748 34.4009L8.39355 34.4009L8.39355 31.6543L10.1294 31.6543L10.1294 34.4009L9.84814 34.4009L9.84814 34.1196L11.8257 34.1196L11.8257 34.4009L11.5444 34.4009L11.5444 31.6719L13.311 31.6719L13.311 34.4009L13.0298 34.4009L13.0298 34.1196L16.229 34.1196L16.229 39.3975L13.0298 39.3975L13.0298 39.1162L13.311 39.1162L13.311 41.4365ZM13.0298 41.4365L16.9937 41.4365C16.9937 41.4365 16.9761 41.7617 16.9761 41.9243C16.8486 44.605 16.7212 45.6509 16.396 46.0464C16.1982 46.3145 15.9478 46.4243 15.5522 46.4595C15.2622 46.4946 14.7041 46.5122 14.146 46.4595C14.1284 46.1343 14.0229 45.686 13.8604 45.396C14.3657 45.4531 14.7788 45.4707 14.959 45.4707C15.1567 45.4707 15.2798 45.4355 15.3721 45.3081C15.5347 45.0928 15.6401 44.3896 15.7324 42.5879L13.0298 42.5879L13.0298 48.3315L11.8257 48.3315L11.8257 42.5879L9.66797 42.5879C9.36035 44.8599 8.49463 46.855 6.33691 48.3843C6.12158 48.1338 5.66895 47.7559 5.3833 47.5757C7.32568 46.2266 8.15186 44.5347 8.47705 42.5879L5.23828 42.5879C5.47119 41.3662 5.72607 39.459 5.84912 37.9473L8.6748 37.9473L8.6748 35.5698L5.74365 35.5698L5.74365 34.4009L8.6748 34.4009L8.6748 31.9355L9.84814 31.9355L9.84814 34.4009L11.8257 34.4009L11.8257 31.9531L13.0298 31.9531L13.0298 34.4009L15.9478 34.4009L15.9478 39.1162L13.0298 39.1162L13.0298 41.4365ZM14.7788 35.5698L13.0298 35.5698L13.0298 37.9473L14.7788 37.9473L14.7788 35.5698ZM9.84814 35.5698L9.84814 37.9473L11.8257 37.9473L11.8257 35.5698L9.84814 35.5698ZM6.55225 41.4365L8.60449 41.4365C8.65723 40.8081 8.6748 40.1797 8.6748 39.4941L8.6748 39.1162L6.85986 39.1162C6.75 39.9072 6.66211 40.7158 6.55225 41.4365ZM9.79102 41.4365L11.8257 41.4365L11.8257 39.1162L9.84814 39.1162L9.84814 39.4941C9.84814 40.1797 9.82617 40.8081 9.79102 41.4365ZM2.4126 48.1338L1.18652 47.3604C1.99951 45.9761 3.15088 43.5986 3.99463 41.564L5.05811 42.3198C4.30225 44.2271 3.27393 46.4595 2.4126 48.1338ZM4.53516 38.646L3.81445 39.7842C3.1333 39.2964 1.76221 38.4482 0.738281 37.8726L1.45898 36.8838C2.44775 37.4067 3.83203 38.1802 4.53516 38.646ZM5.43604 33.9702L4.68018 35.082C4.01221 34.5635 2.64551 33.6802 1.65674 33.0693L2.39502 32.0981C3.36621 32.6519 4.73291 33.4824 5.43604 33.9702Z" fill="#32846E" fill-opacity="1.000000" transform="matrix(1 0 0 1 18.0237 493.428)"/><path d="M13.645 69.1353L4.021 69.1353L4.021 65.3647L13.9263 65.3647L13.9263 69.1353L13.645 69.1353ZM13.645 68.5728L13.645 68.854L13.3638 68.854L13.3638 65.646L13.645 65.646L13.645 65.9272L4.30225 65.9272L4.30225 65.646L4.5835 65.646L4.5835 68.854L4.30225 68.854L4.30225 68.5728L13.645 68.5728ZM14.9941 64.6704L9.2417 64.6704L9.2417 61.8403L16.3257 61.8403L16.3257 62.1216L16.0444 62.1216L16.0444 60.8604L16.3257 60.8604L16.3257 61.1416L9.2417 61.1416L9.2417 58.9355L9.52295 58.9355L9.52295 59.2168L8.19141 59.2168L8.19141 58.9355L8.47266 58.9355L8.47266 64.6704L3.02344 64.6704L3.02344 64.3892L3.30469 64.3892L3.30469 70.1108L3.02344 70.1108L3.02344 69.8296L14.9941 69.8296L14.9941 70.1108L14.7129 70.1108L14.7129 64.3892L14.9941 64.3892L14.9941 64.6704ZM15.2754 64.1079L15.2754 70.3921L2.74219 70.3921L2.74219 64.1079L8.19141 64.1079L8.19141 64.3892L7.91016 64.3892L7.91016 58.6543L9.8042 58.6543L9.8042 60.8604L9.52295 60.8604L9.52295 60.5791L16.6069 60.5791L16.6069 62.4028L9.52295 62.4028L9.52295 62.1216L9.8042 62.1216L9.8042 64.3892L9.52295 64.3892L9.52295 64.1079L14.9941 64.1079L15.2754 64.1079ZM1.83949 75.1642Q3.23995 73.8144 4.25857 71.4075L4.51758 71.5171L4.44736 71.7894L3.18613 71.4642L3.25635 71.1919L3.5145 71.3035Q2.46043 73.7415 0.990486 74.988L0.808594 74.7734L0.931095 74.5203L2.15717 75.1135L2.03467 75.3667L1.83949 75.1642ZM2.08867 75.7053L0.297112 74.8384L0.626701 74.5589Q1.99632 73.3976 2.99819 71.0803L3.09365 70.8595L4.90376 71.3262L4.77659 71.6267Q3.71313 74.1396 2.22984 75.5692L2.08867 75.7053ZM6.41483 71.6239Q6.81592 73.6067 6.81592 75.2261L6.53467 75.2261L6.49696 74.9474L7.8285 74.7672L7.86621 75.0459L7.58502 75.0516Q7.55639 73.6413 7.14247 71.6264L7.41797 71.5698L7.44204 71.85L6.16323 71.9599L6.13916 71.6797L6.41483 71.6239ZM5.80099 71.4265L7.64313 71.2682L7.69347 71.5132Q8.11773 73.5785 8.1474 75.0402L8.1525 75.291L6.25342 75.5479L6.25342 75.2261Q6.25342 73.663 5.86349 71.7355L5.80099 71.4265ZM10.0785 71.5731Q11.0365 73.5202 11.3629 75.1125L11.0874 75.1689L11.0233 74.8951L12.3197 74.5919L12.3838 74.8657L12.1102 74.9311Q11.7498 73.4231 10.7848 71.5538L11.0347 71.4248L11.0965 71.6992L9.88803 71.9716L9.82617 71.6973L10.0785 71.5731ZM9.41634 71.5014L11.1849 71.1026L11.2846 71.2958Q12.281 73.2258 12.6573 74.8003L12.723 75.0752L10.8699 75.5087L10.8119 75.2254Q10.5 73.7038 9.57381 71.8214L9.41634 71.5014ZM13.7039 71.3614Q15.3657 73.4851 16.0448 75.1181L15.7852 75.2261L15.6805 74.965L16.9418 74.4596L17.0464 74.7207L16.7893 74.8347Q16.1359 73.3615 14.4328 71.2591L14.6514 71.082L14.7529 71.3443L13.584 71.7969L13.4824 71.5347L13.7039 71.3614ZM13.0272 71.4093L14.7409 70.7458L14.8699 70.905Q16.6199 73.0653 17.3035 74.6067L17.4217 74.8733L15.6321 75.5904L15.5255 75.3341Q14.8756 73.7716 13.2609 71.708L13.0272 71.4093ZM13.4824 71.5347L14.6514 71.082C15.5698 72.2158 16.5981 73.71 17.0464 74.7207L15.7852 75.2261C15.3721 74.2329 14.3833 72.686 13.4824 71.5347ZM9.82617 71.6973L11.0347 71.4248C11.5928 72.5059 12.1685 73.9648 12.3838 74.8657L11.0874 75.1689C10.9072 74.29 10.3667 72.7959 9.82617 71.6973ZM6.13916 71.6797L7.41797 71.5698C7.65088 72.7036 7.84863 74.1802 7.86621 75.0459L6.53467 75.2261C6.53467 74.3252 6.37207 72.8311 6.13916 71.6797ZM2.03467 75.3667L0.808594 74.7734C1.76221 73.9648 2.68066 72.5234 3.25635 71.1919L4.51758 71.5171C3.92432 72.9189 3.00586 74.4307 2.03467 75.3667ZM14.9941 64.3892L14.9941 70.1108L3.02344 70.1108L3.02344 64.3892L8.19141 64.3892L8.19141 58.9355L9.52295 58.9355L9.52295 60.8604L16.3257 60.8604L16.3257 62.1216L9.52295 62.1216L9.52295 64.3892L14.9941 64.3892ZM13.645 68.854L13.645 65.646L4.30225 65.646L4.30225 68.854L13.645 68.854Z" fill="#32846E" fill-opacity="1.000000" transform="matrix(1 0 0 1 18.0237 493.428)"/><path d="M0 405.841L6 395.449L-6 395.449L0 405.841Z" transform="matrix(1 0 0 1 27.4737 87.5879)" fill="#32846E" fill-opacity="1.000000" stroke="none"/><path d="M0 0L0 399.841" fill="none" stroke="#32846E" stroke-opacity="1.000000" stroke-width="2" stroke-linejoin="round" stroke-dasharray="0 0" transform="matrix(1 0 0 1 27.4737 87.5879)"/></svg>